<svg xmlns="http://www.w3.org/2000/svg" enable-background="new 0 0 24 24" viewBox="0 0 24 24" id="autodesk"><polygon points="4 14 4.001 14 4.001 14"></polygon><path d="M22.986,21.079l-0.24-0.569l-0.774-1.852h-0.006l-1.014-2.421l-1.008-2.397l-0.012-0.024l-1.008-2.409l-0.006-0.012L17.916,9.01l-0.018-0.036l-0.996-2.385l-0.018-0.036L15.9,4.192l-0.03-0.061l-1.014-2.421l-0.228-0.539C14.502,0.851,14.22,0.5,13.626,0.5H7.2c-0.828,0-1.02,0.66-1.02,0.66L5.574,2.612l-5.268,12.65C0.132,15.709,0.001,16.083,0,16.337h0c0,0.001,0,0.001,0,0.001l0,0.001l0,0.001c0,0.283,0.004,0.416,0.208,0.811l1.737,3.24l1.224,2.286c0.045,0.079,0.093,0.137,0.139,0.204c0.247,0.36,0.534,0.549,0.961,0.595C4.34,23.484,4.402,23.5,4.482,23.5l0.001,0l0.001,0c0.001,0,0.003,0,0.005,0c0.111,0,0.226-0.013,0.343-0.032c0.034-0.005,0.069-0.012,0.104-0.018c0.099-0.019,0.198-0.043,0.298-0.071c0.022-0.006,0.043-0.011,0.065-0.017c0.117-0.035,0.234-0.077,0.349-0.121c0.038-0.015,0.075-0.03,0.113-0.045c0.086-0.035,0.171-0.071,0.254-0.109c0.033-0.015,0.066-0.029,0.098-0.044c0.101-0.048,0.198-0.096,0.29-0.144c0.053-0.027,0.1-0.053,0.15-0.08c0.019-0.01,0.04-0.021,0.059-0.032l0-0.001c0.26-0.143,0.473-0.273,0.588-0.344c1.946-1.206,7.725-4.932,7.816-4.991l0.17,0.403l0.336,0.805l1.02,2.421l1.014,2.421H24L22.986,21.079z M5.772,17.447L10.11,7.176l0.296-0.704l0.034,0.08l1.014,2.421l0.768,1.816l0.252,0.605l1.014,2.421l0.51,1.211l0.51,1.211l0.336,0.805l0.171,0.406h-4.521H7.116H5.772z"></path></svg>