<?xml version="1.0" encoding="utf-8"?>
<!-- Generator: Adobe Illustrator 27.6.0, SVG Export Plug-In . SVG Version: 6.00 Build 0)  -->
<svg version="1.1" id="Layer_1" xmlns="http://www.w3.org/2000/svg" xmlns:xlink="http://www.w3.org/1999/xlink" x="0px" y="0px"
	 viewBox="0 0 360 360" enable-background="new 0 0 360 360" xml:space="preserve">
<g>
	<g>
		<path fill="#F47835" d="M94.4,229.3c17.9-3.8,25.3-19.8,25.3-32.1c0-13-12.3-34.1-42.8-33.4c-37.7,0.9-61.5,28-62.3,61.6
			c-1,42.3,38.5,70,79.1,70.5c59.6,0.7,94.9-38.3,94.8-95.6c-0.1-51.8-41.7-101.7-104.2-103.9c-34.2-1.2-62.6,8.3-84.4,23.7v38.4
			c20.5-24.1,51.1-35.4,77.8-35.1c45.3,0.5,80.3,34.6,80.5,73.3c0.2,36.9-15.3,64.1-57,70.8c-22.8,3.7-58.4-9.7-56.8-44.1
			c0.8-17.7,14.6-27.7,30.5-27C59.4,217.1,79.9,232.4,94.4,229.3z"/>
		<path fill="#F47835" d="M304.8,231.4l55.2,28.2v-78.6l-44.3,4.4l44.3-24.6V0h-89c3.8,12.6,16.1,21.6,16.1,42.7
			c0,29.1-34.4,35.7-35.1,65.6c-0.6,28.9,21,36.1,21.7,60.2c0.6,23.8-9.6,34.4-9.6,34.4s5.7-7.2,3.3-24.8
			c-4.9-35.8-38.8-38.5-39.7-69.8C226.8,81,246.3,74.9,246,50.5c-0.3-26.9-24.8-36.3-27.6-50.5H0v83.7c23.6-13.6,52-21.8,84.4-21.8
			c87.4,0.1,143,61.2,142.9,138.2c0,79.8-55.5,130.1-130.5,130.9c-42.9,0.5-76.2-17.8-96.8-42.6V360h236.5l27.7-102.1L288.5,360H360
			v-67.1L304.8,231.4z"/>
	</g>
</g>
<g>
</g>
<g>
</g>
<g>
</g>
<g>
</g>
<g>
</g>
<g>
</g>
<g>
</g>
<g>
</g>
<g>
</g>
<g>
</g>
<g>
</g>
<g>
</g>
</svg>
