<?xml version="1.0" encoding="utf-8"?>
<!-- Generator: Adobe Illustrator 27.6.0, SVG Export Plug-In . SVG Version: 6.00 Build 0)  -->
<svg version="1.1" id="Layer_1" xmlns="http://www.w3.org/2000/svg" xmlns:xlink="http://www.w3.org/1999/xlink" x="0px" y="0px"
	 viewBox="0 0 500 500" enable-background="new 0 0 500 500" xml:space="preserve">
<g>
	<path fill="#000" d="M459.5,249.6c13.2,0,26.6,0,40.3,0c-1.8,3.6-3.9,7-5.9,10.4c-1.9,3.4-3.9,6.8-5.9,10.2
		c-2,3.4-4,6.9-5.9,10.3c-2,3.4-3.9,6.8-5.9,10.2c-2,3.4-4,6.9-5.9,10.3c-2,3.4-3.9,6.8-5.9,10.2c-2,3.4-4,6.9-6,10.3
		c-2,3.4-4,6.9-5.9,10.3c-2,3.4-3.9,6.8-5.9,10.2c-2,3.4-4,6.9-6,10.3c-2,3.4-3.9,6.8-5.9,10.2c-2,3.4-3.9,6.9-6,10.3
		c-1.9,3.3-3.9,6.6-5.9,10c-1.9,3.4-3.8,6.8-5.8,10.2c-2,3.4-4,6.9-5.9,10.3c-2,3.4-3.9,6.8-5.9,10.2c-2,3.4-4,6.9-6,10.3
		c-2,3.4-3.9,6.8-5.9,10.2c-2,3.4-4,6.9-6,10.3c-2,3.4-3.9,6.8-5.9,10.2c-2,3.4-4,6.9-5.9,10.3c-114.7,0-229.3,0-344.2,0
		c14.4-25,28.8-49.8,43.1-74.7c14.3-24.7,28.6-49.5,42.9-74.3c-1.2-2.2-2.5-4.4-3.8-6.6c-10.8-18.6-21.5-37.2-32.3-55.9
		c-0.4-0.7-0.8-1.4-1.2-2c-0.6-0.8-0.7-1.5-0.1-2.4c1.5-2.5,2.9-5.1,4.4-7.6c5.1-8.8,10.2-17.5,15.3-26.3
		c10.6-18.4,21.2-36.8,31.8-55.1c6.5-11.2,12.9-22.3,19.4-33.5c4.7-8.1,9.3-16.1,13.9-24.2c0.5-0.8,1-1.3,2-1.1c0.4,0.1,0.8,0,1.2,0
		c55.8,0,111.6,0,167.3,0c0.7,0,1.4,0,2.3,0c9.2,16,18.5,32,27.7,47.9c0.2,0,0.2,0,0.3,0c0.1,0,0.1,0,0.2-0.1c15-26,30-51.9,45-77.9
		c0.1-0.2,0.1-0.4,0.3-0.8c-0.8,0-1.4-0.1-2-0.1c-21,0-41.9,0-62.9,0c-65.6,0-131.1,0-196.7-0.1c-1.5,0-2.3,0.5-3,1.7
		c-9.2,15.6-18.5,31.2-27.8,46.8c-2.1,3.5-4.3,6.9-6.4,10.3c-2.3,3.8-4.5,7.7-6.8,11.6c-1.9,3.3-3.9,6.5-5.9,9.8
		c-2.9,5-5.7,9.9-8.7,14.9c-10,16.8-19.9,33.5-29.9,50.2c-6.5,11-13.1,22-19.6,33c-0.3,0.5-0.6,0.9-0.9,1.4c-13.4,0-26.8,0-40.4,0
		c0.9-1.6,1.8-3,2.6-4.4c14.9-25.1,29.8-50.1,44.7-75.2c7.1-11.9,14.2-23.9,21.3-35.9c3.3-5.5,6.5-11.1,9.7-16.6
		c10.5-17.6,21.1-35.3,31.6-52.9c2.4-4.1,4.9-8.1,7.3-12.2c2.9-5,6-9.9,8.9-14.9c0.1-0.2,0.3-0.4,0.3-0.6c0.4-1.9,1.7-1.9,3.2-1.9
		c113.1,0,226.2,0,339.4,0c0.7,0,1.4,0,2.5,0c-28.7,49.8-57.3,99.3-86,148.9c0.9,1.6,1.8,3.1,2.7,4.7c1.8,3.2,3.6,6.5,5.4,9.7
		c1.9,3.2,3.8,6.4,5.7,9.7c1.5,2.6,2.9,5.2,4.4,7.8c1.4,2.4,2.9,4.8,4.3,7.2c1.4,2.5,2.8,5,4.2,7.5c2,3.4,3.9,6.7,5.9,10.1
		c1.6,2.8,3.2,5.6,4.8,8.5c0.5,0.9,0.1,1.6-0.3,2.3c-1.7,2.9-3.4,5.8-5,8.7c-17.9,31-35.8,62-53.7,93c-1.8,3.2-3.8,6.2-5.7,9.4
		c-1.8,3.1-3.6,6.3-5.4,9.5c-5,8.8-10,17.5-15,26.2c-0.1,0.2-0.3,0.4-0.4,0.6c-57.3,0-114.6,0-172.1,0c-9.2-16-18.5-32-27.7-47.9
		c-0.1,0-0.2,0-0.3,0c-0.1,0-0.1,0-0.1,0.1c-15.1,26.1-30.1,52.1-45.2,78.2c-0.1,0.1-0.1,0.3-0.1,0.6c87.8,0,175.5,0,263.3,0
		C390.3,369.6,424.9,309.7,459.5,249.6z M185.8,135.5c-22.1,37.9-43.7,76.3-66,114.1c0.5,0.7,0.9,1.3,1.2,1.9c8.7,15,17.3,30,26,45
		c7.4,12.8,14.8,25.7,22.1,38.6c3,5.2,6,10.4,9,15.6c2.3,4,4.6,8,6.9,12c0.4,0.7,0.9,1.2,1.8,1.1c0.3,0,0.7,0,1,0
		c42.6,0,85.2,0,127.8,0c0.6,0,1.1,0,1.7,0c0.5-0.7,1-1.5,1.5-2.2c2.6-4.6,5.2-9.2,7.9-13.8c3-5.3,6.1-10.5,9.2-15.7
		c13.2-22.8,26.3-45.6,39.5-68.3c2.5-4.3,4.9-8.5,7.4-12.8c0.5-0.8,0.7-1.5,0.3-2.3c-1-1.7-2-3.3-3-5c-3.9-6.7-7.8-13.3-11.6-20
		c-4-7-8.1-14.1-12.1-21.1c-4.3-7.5-8.7-15-13-22.5c-4.8-8.3-9.6-16.6-14.3-25c-3.2-5.6-6.4-11.1-9.6-16.7c-0.6-1-1.2-2-1.8-2.9
		C273.7,135.5,229.9,135.5,185.8,135.5z"/>
</g>
<g>
</g>
<g>
</g>
<g>
</g>
<g>
</g>
<g>
</g>
<g>
</g>
<g>
</g>
<g>
</g>
<g>
</g>
<g>
</g>
<g>
</g>
<g>
</g>
<g>
</g>
<g>
</g>
<g>
</g>
</svg>
