<?xml version="1.0" encoding="UTF-8"?>
<svg id="svg3258" xmlns="http://www.w3.org/2000/svg" viewBox="0 0 83 94.25">
  <path d="M83,69.3c-6.2-18.8-10.9-27.5-20.5-34.5,4.8-2.6,11.4-3.1,17.5-2.2.3,0,.5-.2.5-.4l1.4-9.3c0-.3-.1-.5-.4-.6-19.4-4-29.2-4.3-40.1.5.1-5.4,3-11.4,6.7-16.2.1-.2.1-.5-.1-.7L40.7.1c-.1-.1-.3-.1-.4-.1h0c-.1,0-.2.1-.3.2-13.2,14.8-18.5,23.1-19.7,35-4.6-2.8-8.4-8.3-10.6-14-.1-.3-.4-.4-.7-.3h0L.3,24.3c-.2.1-.3.4-.3.6,6.2,18.8,10.9,27.4,20.5,34.5-4.8,2.6-11.4,3.2-17.5,2.3-.3,0-.5.1-.6.4h0l-1.4,9.2c0,.3.1.5.4.6,19.4,4,29.3,4.4,40.2-.5-.2,5.4-3,11.4-6.8,16.2-.2.2-.1.5.1.7h0l7.3,5.8c.2.2.5.2.7,0,13.2-14.8,18.4-23.1,19.6-35,4.6,2.8,8.4,8.3,10.7,14,.1.2.4.3.6.3l8.7-3.4c.4-.2.5-.5.5-.7ZM41.9,58.9c-6.5.2-12-4.9-12.2-11.5-.2-6.5,4.9-12,11.5-12.2,6.5-.2,12,4.9,12.2,11.5.2,6.6-4.9,12-11.5,12.2Z" style="fill: #000; stroke-width: 0px;"/>
</svg>