<?xml version="1.0" encoding="utf-8"?>
<!-- Generator: Adobe Illustrator 28.2.0, SVG Export Plug-In . SVG Version: 6.00 Build 0)  -->
<svg version="1.1" id="Layer_1" xmlns="http://www.w3.org/2000/svg" xmlns:xlink="http://www.w3.org/1999/xlink" x="0px" y="0px"
	 viewBox="0 0 1000 1000" style="enable-background:new 0 0 1000 1000;" xml:space="preserve">
<style type="text/css">
	.st0{fill:#FFFFFF;}
</style>
<g>
	<path class="st0" d="M726.96,611.34c-3.37-1.7-6.78-3.34-10.1-5.12c-11.14-5.98-22.24-12.02-33.36-18.04
		c-5.3-2.87-10.6-5.74-15.88-8.63c-2.19-1.2-4.46-2.12-6.88-2.77c-4.45-1.19-8.86-2.52-13.26-3.87c-2.1-0.64-4.11-0.74-6.25-0.11
		c-3.51,1.04-7.08,1.86-10.62,2.77c-0.91,0.23-1.85,0.41-2.54,1.36c-0.25,1.67,0.57,3.13,1.33,4.57c0.61,1.14,1.39,2.2,2.11,3.27
		c10.76,15.97,21.53,31.94,32.29,47.91c0.66,0.97,1.28,1.96,1.95,2.99c-0.91,0.73-1.36-0.12-1.83-0.42
		c-9.87-6.49-19.72-13.02-29.58-19.53c-7.19-4.76-14.37-9.54-21.59-14.26c-1.81-1.18-3.37-2.56-4.63-4.32
		c-1.31-1.82-2.68-3.6-4.04-5.39c-1.8-2.34-3.68-4.63-4.39-7.72c-0.85-0.19-1.62-0.51-2.41-0.53c-9.21-0.28-18.42-0.52-27.63-0.75
		c-1.04-0.03-2.08,0.12-3.27,0.2c-0.46,1.07-0.97,2-1.27,2.99c-3.65,12.22-7.33,24.44-10.86,36.69c-1.05,3.64-0.99,7.47-1.27,11.24
		c-0.37,4.94-0.86,9.88-1.22,14.82c-0.14,1.86-0.76,3.43-2.1,4.73c-0.25,0.25-0.45,0.55-0.7,0.8c-1.22,1.27-1.69,2.77-1.52,4.54
		c0.38,4,0.67,8,1.07,11.99c0.17,1.67,0.11,3.27-0.31,4.91c-1.59,6.18-3.11,12.37-4.66,18.56c-0.14,0.57-0.32,1.14-0.49,1.7
		c-0.31,1-1,1.59-2.05,1.68c-0.82,0.07-1.65,0.08-2.48,0.1c-8.39,0.22-16.77,0.48-25.16,0.63c-2.04,0.04-3.61,0.65-4.96,2.21
		c-2.09,2.41-4.27,4.74-6.46,7.06c-1.13,1.2-1.6,2.55-1.54,4.18c0.05,1.24,0.35,2.32,1.25,3.2c0.84,0.83,1.64,1.7,2.51,2.5
		c0.42,0.39,0.94,0.68,1.33,0.95c1.38,0.02,2.05-0.88,2.77-1.63c1.97-2.04,3.97-4.06,5.82-6.21c1.59-1.85,3.45-2.58,5.89-2.57
		c6.62,0.03,13.23-0.12,19.85-0.24c2.12-0.04,4.25-0.25,6.37-0.31c1.69-0.04,2.36,0.57,2.58,2.23c0.19,1.4,0.3,2.82,0.5,4.22
		c0.33,2.2-0.11,4.15-1.4,6.03c-2.86,4.2-5.58,8.49-8.37,12.74c-1.16,1.78-2.32,3.56-3.52,5.32c-0.39,0.57-0.89,1.05-1.22,1.43
		c-1.32,0.25-2.02-0.47-2.79-0.98c-4.23-2.82-8.44-5.66-12.66-8.49c-0.88-0.59-1.78-1.16-2.71-1.68c-0.25-0.14-0.64-0.02-1.2-0.02
		c0.69,2.54,3.32,3.44,4.28,5.73c-0.48,0.49-0.91,1.04-1.44,1.47c-7.8,6.33-15.6,12.65-23.41,18.97c-0.37,0.3-0.76,0.56-1.13,0.85
		c-1.21,0.94-2.5,1.25-3.98,0.64c-1.09-0.45-2.23-0.79-3.34-1.19c-18.84-6.96-37.67-13.93-56.51-20.89
		c-0.89-0.33-1.77-0.67-2.69-0.9c-6.24-1.58-11.94-4.41-17.49-7.59c-10.76-6.17-21.57-12.26-32.33-18.43
		c-3.28-1.88-6.44-3.96-9.71-5.86c-19.03-11-38.08-21.95-57.1-32.96c-5.21-3.02-10.35-6.18-15.52-9.27l-0.02,0.02
		c3.57,0.82,7.15,1.58,10.7,2.48c24.84,6.31,49.68,12.66,74.52,18.99c17.97,4.58,35.94,9.15,53.91,13.74
		c1.35,0.34,2.7,0.71,4.4,0.79c-0.32-0.51-0.42-0.9-0.64-0.99c-1.76-0.67-3.53-1.33-5.33-1.92c-29.53-9.68-59.06-19.34-88.59-29.01
		c-14.48-4.74-28.96-9.5-43.46-14.21c-2.49-0.81-4.85-1.82-7.09-3.17c-3.64-2.2-7.3-4.37-10.99-6.48c-1.61-0.92-2.76-2.11-3.47-3.85
		c-1.06-2.63-2.27-5.2-3.42-7.79c-0.05-0.11-0.09-0.22-0.14-0.33c-1.11-2.73-1.03-3.1,1.2-5.23c0.94-0.9,1.95-1.73,2.85-2.66
		c0.46-0.48,0.76-1.12,1.09-1.62c-0.24-0.36-0.32-0.65-0.51-0.74c-2.41-1.22-3.93-3.3-5.46-5.42c-5.12-7.09-10.31-14.13-15.46-21.2
		c-0.62-0.86-1.22-1.74-1.75-2.66c-0.45-0.79-0.16-1.71,0.66-2.1c0.85-0.41,1.74-0.74,2.63-1.03c4.26-1.41,8.54-2.77,12.8-4.2
		c1.2-0.41,2.57-0.56,3.41-1.7c0.22-1.25-0.63-2-1.25-2.82c-2.58-3.38-5.2-6.74-7.8-10.1c-1.37-1.78-2.67-3.62-4.14-5.31
		c-1.57-1.82-1.91-3.59-0.81-5.83c1.61-3.28,2.96-6.7,4.43-10.06c2.09-4.76,4.18-9.52,6.27-14.28c0.43-0.97,0.79-1.98,1.26-2.93
		c0.69-1.41,0.57-2.72-0.21-4.04c-0.84-1.42-1.63-2.88-2.45-4.32c-5.3-9.22-10.58-18.46-15.94-27.64c-0.93-1.6-1.47-3.17-1.39-5.01
		c0.14-3.19,0.22-6.38,0.28-9.57c0.16-8.63,0.31-17.25,0.43-25.88c0.04-2.83,0.14-5.65-0.48-8.47c-0.3-1.36-0.15-2.82-0.16-4.24
		c-0.08-21.87-0.15-43.73-0.24-65.6c-0.04-8.75-0.11-17.49-0.18-26.24c-0.02-1.77-0.14-3.54-0.18-5.31c-0.03-1.42-0.04-2.84,0-4.25
		c0.03-1,0.48-1.82,1.35-2.36c0.8-0.5,1.61-0.99,2.43-1.45c55.41-31.18,110.82-62.36,166.23-93.55
		c23.79-13.39,47.58-26.79,71.37-40.17c1.24-0.7,2.49-1.36,3.74-2.03c1.01-0.54,2.05-0.53,3.06,0c1.26,0.65,2.51,1.32,3.74,2.02
		c36.97,21.05,73.95,42.09,110.91,63.17c41.37,23.59,82.73,47.21,124.09,70.83c1.03,0.59,2.04,1.2,3.05,1.8
		c1.12,0.66,1.63,1.65,1.63,2.94c0,1.18,0.04,2.36,0.04,3.55c0.09,25.41,0.18,50.82,0.28,76.24c0.14,36.52,0.28,73.04,0.41,109.56
		c0.01,2.71,0.1,5.42-0.53,8.11c-0.32,1.35-0.17,2.82-0.2,4.24c-0.28,13.23-0.55,26.47-0.84,39.7c-0.03,1.41-0.17,2.83-0.33,4.24
		c-0.05,0.42-0.33,0.81-0.61,1.45c-0.83-0.58-1.52-0.98-2.12-1.5c-3.23-2.77-6.43-5.58-9.65-8.36c-0.97-0.84-1.87-1.79-3.09-2.1
		c-1.42,0.41-1.87,1.58-2.51,2.54c-0.59,0.88-1.13,1.8-1.66,2.73c-0.58,1.02-1.13,2.06-1.69,3.08c0.21,0.55,0.29,1.06,0.57,1.4
		c1.35,1.66,1.76,3.57,1.63,5.65c-0.02,0.35-0.03,0.71-0.01,1.06c0.25,3.66-0.32,7.06-2.94,9.87c-0.38,0.41-0.55,1.03-0.73,1.38
		c-0.04,1.6,0.8,2.65,1.39,3.79c1.19,2.31,2.41,4.6,3.63,6.9L726.96,611.34z"/>
	<path class="st0" d="M673.07,763.11c0.47,1.78,1.7,3.09,2.79,4.48c8.57,10.84,17.17,21.67,25.75,32.5c0.73,0.93,1.48,1.84,2.17,2.8
		c0.25,0.35,0.34,0.82,0.46,1.12c-0.48,0.68-0.94,0.59-1.37,0.34c-0.51-0.29-1-0.63-1.47-0.98c-17.15-12.97-34.29-25.94-51.44-38.92
		c-2.17-1.64-4.35-3.26-6.51-4.91c-0.66-0.5-1.29-1.03-1.9-1.59c-0.65-0.61-0.87-1.39-0.7-2.26c0.07-0.35,0.17-0.69,0.25-1.03
		c1.63-6.77,3.24-13.55,4.9-20.31c0.16-0.64,0.08-1.45,0.85-1.87c1.05,0.16,1.42,1.13,1.99,1.83c4.38,5.42,8.73,10.87,13.1,16.3
		c1.04,1.29,2.1,2.55,3.2,3.79c0.37,0.42,0.89,0.71,1.23,0.96c0.96-0.12,1.15-0.73,1.25-1.29c0.48-2.55,0.93-5.11,1.35-7.67
		c0.45-2.68,0.88-5.36,1.26-8.05c0.2-1.43,0.64-2.74,1.31-4.01c4.83-9.07,9.64-18.15,14.46-27.23c0.17-0.31,0.36-0.61,0.52-0.93
		c0.66-1.3,1.72-1.89,3.17-1.83c2.36,0.1,4.72,0.14,7.08,0.31c5.06,0.37,10.12,0.89,15.18,1.17c2.17,0.12,3.8,0.82,5.17,2.53
		c4.06,5.07,8.22,10.06,12.33,15.09c1.13,1.38,1.97,2.93,2.57,4.62c4.95,13.91,9.91,27.82,14.91,41.71c0.77,2.14,1.16,4.3,1.14,6.58
		c-0.1,9.33-0.09,18.67-0.21,28c-0.07,5.79-0.28,11.57-0.47,17.36c-0.12,3.72-0.89,4.24-4.61,3.62c-2.53-0.43-4.62-1.47-6.51-3.27
		c-11.46-10.92-22.96-21.8-34.51-32.63c-8.53-8-17.15-15.9-25.75-23.83c-0.95-0.88-2.01-1.64-3.02-2.46L673.07,763.11z"/>
	<path class="st0" d="M634.74,622.71c0.77,0.89,1.59,1.75,2.31,2.67c12.86,16.48,25.7,32.97,38.54,49.46
		c2.63,3.38,2.65,3.4,1.49,7.4c-1.54,5.33-3.12,10.65-4.69,15.97c-0.33,1.11-0.47,2.33-1.64,3.27c-0.55-0.06-1.26-0.04-1.92-0.22
		c-2.95-0.85-5.87-1.79-8.82-2.62c-1.52-0.43-2.43-1.36-2.87-2.83c-0.58-1.92-1.15-3.85-1.79-5.75c-0.37-1.1-0.55-2.32-1.72-3.29
		c-0.51,0.03-1.22-0.03-1.87,0.14c-1.25,0.33-2.48,0.77-3.71,1.2c-7.02,2.45-14.04,4.93-21.07,7.36c-1.32,0.46-2.61,1.14-4.29,0.9
		c-2.2-1.77-3.94-4.15-5.6-6.57c-0.5-0.74-0.64-1.76-0.81-2.68c-0.88-4.64-1.73-9.28-2.56-13.93c-2.05-11.38-4.09-22.77-6.13-34.15
		c-0.71-3.95-1.27-7.93-2.17-11.84c-0.81-3.52,0.24-6.51,1.89-9.46c0.44-0.79,1.17-1.24,2.06-1.11c2.92,0.42,5.83,0.89,8.73,1.38
		c0.87,0.15,1.46,0.77,1.88,1.5c0.71,1.22,1.4,2.46,2.07,3.71c8.16,15.18,16.32,30.37,24.49,45.55c0.5,0.93,1.02,1.86,1.59,2.76
		c0.16,0.26,0.53,0.38,0.94,0.65c0.12-0.44,0.33-0.77,0.27-1.04c-0.22-1.04-0.5-2.06-0.82-3.08c-4.19-13.65-8.4-27.3-12.59-40.96
		c-0.45-1.46-0.8-2.96-1.19-4.44L634.74,622.71z"/>
	<path class="st0" d="M742.82,737.29c3.42-0.19,6.3,1.8,9.66,1.44c0.5-3.83-1.01-7.3-1.22-10.86c0.34-0.3,0.57-0.59,0.86-0.75
		c4.35-2.37,8.69-4.77,13.09-7.07c1.45-0.76,3.03-1.3,4.58-1.85c1.25-0.44,2.32-0.04,3.15,0.99c0.52,0.64,1.07,1.26,1.58,1.91
		c13.73,17.3,27.45,34.6,41.17,51.9c0.65,0.82,1.23,1.7,1.94,2.69c-0.41,0.4-0.68,0.84-1.05,0.99c-4.19,1.59-8.4,3.15-12.61,4.69
		c-0.43,0.16-0.92,0.15-1.57,0.24c-0.67-0.51-1.45-1.03-2.14-1.65c-12.3-10.87-24.58-21.76-36.87-32.64
		c-0.88-0.78-1.78-1.55-2.72-2.26c-0.34-0.26-0.82-0.33-1.1-0.43c-0.84,0.42-0.89,1.04-0.86,1.61c0.09,2.12,0.25,4.24,0.37,6.36
		c0.07,1.18,0.19,2.36,0.16,3.53c-0.03,1.01-0.79,1.65-1.85,1.81c-1.25,0.19-2.35-0.07-3.26-0.97c-2.7-2.65-5.38-5.3-8.08-7.95
		c-0.78-0.77-1.22-1.73-1.49-2.77c-0.63-2.51-1.27-5.03-1.86-7.55C742.62,738.36,742.75,737.99,742.82,737.29z"/>
	<path class="st0" d="M682.01,613.91c-1.83,3.42-5.27,5.53-6.81,8.9c0.4,1.33,1.46,1.73,2.39,2.17c1.89,0.9,2.86,2.29,3.07,4.39
		c0.22,2.23,0.63,4.44,1,6.65c0.16,0.97,0.12,1.89-0.32,2.76c-2.48,4.81-4.84,9.67-7.44,14.44c-1.16-0.46-1.01-1.42-1.14-2.15
		c-0.59-3.25-1.09-6.52-1.62-9.78c-0.78-4.77-1.54-9.55-2.35-14.32c-0.22-1.27-0.39-2.56-0.94-3.56c-0.35-0.28-0.52-0.52-0.72-0.56
		c-1.84-0.33-3.16-1.36-4.34-2.77c-7.12-8.51-14.3-16.97-21.45-25.45c-0.38-0.45-0.83-0.88-1.08-1.4c-2.02-4.13-4-8.27-5.98-12.41
		c-0.04-0.09,0.01-0.23,0.02-0.35c0.25-0.66,0.81-0.81,1.41-0.83c3.79-0.12,7.56,0.1,11.22,1.18c7.7,2.27,15.37,4.61,23.07,6.85
		c1.97,0.57,3.27,1.6,3.98,3.6c2.37,6.67,4.87,13.3,7.29,19.95C681.6,612.09,681.77,613.02,682.01,613.91z"/>
	<path class="st0" d="M766.82,682.67c-0.35,0.99-0.69,1.85-0.96,2.73c-0.21,0.67-0.29,1.39-0.52,2.06
		c-0.41,1.23-1.22,1.71-2.44,1.49c-0.35-0.06-0.69-0.17-1.03-0.28c-4.63-1.41-9.27-2.81-13.9-4.23c-0.56-0.17-1.08-0.45-1.47-0.61
		c-1.06-0.99-1.28-2.2-1.45-3.34c-0.49-3.36-1.73-6.62-1.51-9.93c1.21-1.6,2.9-1.97,4.36-2.68c1.59-0.78,3.21-1.5,4.84-2.19
		c1.51-0.64,2.9-1.59,4.48-1.82c0.77,0.47,1.42,0.86,2.32,1.4c0.14-2.07-0.81-3.49-1.34-5.01c-0.58-1.67-1.31-3.29-1.92-4.96
		c-0.55-1.53-1.44-2.96-1.52-4.59c0.82-0.7,1.45-0.16,2.05,0.1c4.64,2.07,9.27,4.16,13.9,6.25c2.48,1.12,4.94,2.27,7.43,3.35
		c1.19,0.51,2.41,1,3.66,1.3c1.68,0.4,2.28,1.42,2.39,3.03c0.14,2.12,0.4,4.23,0.61,6.35c1.04,10.7,2.07,21.4,3.12,32.1
		c0.32,3.29,0.73,6.57,1.05,9.87c0.13,1.29,0.15,2.59,0.16,3.89c0.01,0.73-0.31,1.36-0.89,1.86c-0.44,0.38-1.27,0.39-1.6-0.04
		c-0.21-0.28-0.44-0.56-0.58-0.88c-3.66-8.21-8.16-15.99-12.21-24c-1.55-3.06-3.16-6.08-4.77-9.11
		C768.67,683.99,768.38,683.01,766.82,682.67z"/>
	<path class="st0" d="M696.69,644.21c1.33,0.69,2.4,1.17,3.39,1.78c11.39,6.94,22.77,13.9,34.14,20.87
		c0.68,0.42,1.27,0.98,1.99,1.55c-0.28,0.54-0.42,0.99-0.7,1.34c-0.45,0.55-0.97,1.04-1.48,1.52c-5.57,5.28-11.17,10.53-16.69,15.86
		c-1.6,1.54-3.38,2.44-5.58,2.76c-4.36,0.64-4.35,0.7-7.69-1.96c-3.14-2.5-6.26-5.03-9.44-7.48c-1.52-1.16-2.24-2.54-2.35-4.49
		c-0.34-6.01-0.81-12.01-1.31-18c-0.21-2.57,0.34-4.89,1.67-7.09c0.92-1.51,1.66-3.13,2.53-4.67
		C695.52,645.61,696.01,645.1,696.69,644.21z"/>
	<path class="st0" d="M565.94,684.41c2.88,0.62,5.77,1.21,8.65,1.87c2.19,0.5,4.35,1.11,6.53,1.62c0.9,0.21,1.83,0.55,2.9-0.12
		c-0.02-0.36,0.06-0.84-0.1-1.23c-0.4-0.98-0.89-1.93-1.38-2.87c-0.84-1.59-1.27-3.28-1.45-5.07c-0.88-8.57-1.82-17.14-2.71-25.72
		c-0.7-6.68-1.36-13.37-2.04-20.09c1.09-0.22,1.13,0.74,1.41,1.23c4.37,7.7,8.7,15.44,13.04,23.16
		c6.71,11.95,13.43,23.89,20.14,35.84c0.86,1.53,1.83,3.03,2,4.83c-0.53,0.9-1.28,0.52-1.89,0.3c-3.45-1.23-6.87-2.53-10.31-3.78
		c-1-0.36-2-0.72-3.03-0.98c-0.4-0.1-0.87,0.04-1.27,0.06c-0.22,1.22,0.6,1.66,1.17,2.2c2.67,2.51,5.38,4.97,8.06,7.47
		c0.58,0.54,1.07,1.17,1.6,1.76c-0.33,0.28-0.49,0.54-0.66,0.55c-4.72,0.24-9.43,0.44-14.15,0.69c-1.63,0.09-2.97-0.42-4.19-1.52
		c-7.02-6.32-14.08-12.61-21.12-18.92c-0.43-0.39-0.78-0.88-1.17-1.32L565.94,684.41z"/>
	<path class="st0" d="M243.46,482.12c0.29,1.35,0.63,2.7,0.86,4.06c1.87,11.28,3.69,22.56,5.6,33.83c0.35,2.07-0.08,3.64-1.67,5.04
		c-3.63,3.19-7.19,6.47-10.77,9.72c-2.79,2.54-5.56,5.1-8.34,7.66c-0.35,0.32-0.7,0.64-1.04,0.96c-1.57,1.5-3.32,2.08-5.5,1.37
		c-1.56-0.5-3.23-0.68-4.82-1.13c-0.62-0.18-1.15-0.69-1.62-0.98c-0.25-1.48,0.44-2.49,0.91-3.55c3.84-8.62,7.7-17.23,11.55-25.84
		c4.15-9.26,8.29-18.51,12.45-27.76c0.52-1.16,1.1-2.3,1.66-3.45C242.98,482.08,243.22,482.1,243.46,482.12z"/>
	<path class="st0" d="M549.68,681.14c9.07,5.46,17.96,10.81,26.85,16.16c0.5,0.3,1,0.63,1.47,0.98c0.7,0.51,1.11,1.2,1.19,2.08
		c0.23,2.47,0.69,4.93,0.66,7.4c-0.05,4.41-0.87,8.67-3.45,12.41c-1.01,1.46-2,2.92-2.97,4.4c-0.69,1.07-1.66,1.65-2.88,1.84
		c-0.58,0.09-1.17,0.18-1.75,0.24c-4.46,0.45-8.92,0.93-13.38,1.33c-1.13,0.1-2.34,0.51-3.35-0.36c-0.44-1.05,0.08-1.89,0.43-2.75
		c1.1-2.74,2.13-5.51,3.35-8.19c0.89-1.95,0.86-3.78,0.35-5.82c-2.28-9.04-4.44-18.11-6.64-27.16
		C549.37,682.93,548.91,682.15,549.68,681.14z"/>
	<path class="st0" d="M579.23,753.19c-0.48,0.43-0.78,0.8-1.17,1.03c-14.73,8.51-29.48,17.01-44.23,25.5
		c-0.28,0.16-0.68,0.12-0.94,0.16c-0.76-0.29-0.83-0.91-0.87-1.49c-0.19-2.36-0.29-4.72-0.53-7.07c-0.38-3.84,0.32-7.51,1.46-11.15
		c0.53-1.7,1.47-2.86,3.02-3.71c4.76-2.62,9.49-5.31,14.23-7.97c2.99-1.68,5.99-3.32,8.96-5.04c1.26-0.73,2.42-0.73,3.67-0.02
		c5.24,2.98,10.49,5.93,15.73,8.91C578.75,752.43,578.85,752.69,579.23,753.19z"/>
	<path class="st0" d="M597.05,762.92c-1.12-0.84-2.09-1.5-2.98-2.25c-5.26-4.39-10.51-8.8-15.75-13.22
		c-0.43-0.37-0.77-0.85-1.12-1.26c0.12-0.47,0.11-0.88,0.3-1.13c1.96-2.66,3.96-5.3,5.95-7.94c0.8-1.06,1.85-1.32,3.14-1.1
		c4.19,0.72,8.39,1.39,12.59,2.08c0.23,0.04,0.46,0.12,0.7,0.14c8.1,0.45,15.24,4,22.52,7.05c0.84,0.35,1.7,0.92,2.27,1.61
		c0.94,1.16,2.22,2.15,2.48,4.02c-0.64,0.42-1.26,0.96-1.97,1.26c-2.29,0.95-4.62,1.8-6.94,2.69c-5.73,2.21-11.46,4.42-17.2,6.62
		C599.83,761.95,598.6,762.36,597.05,762.92z"/>
	<path class="st0" d="M770.7,762.42c2.61,0.05,4.56,0.89,6.52,1.67c0.69,0.28,1.1,0.89,1.17,1.65c0.04,0.47,0.06,0.95,0.02,1.41
		c-0.32,3.77-0.67,7.53-1,11.29c-0.3,3.41-0.6,6.82-0.88,10.24c-0.51,6.24-1.02,12.48-1.52,18.72c-0.26,3.26-0.56,3.58-3.8,3.83
		c-4.71,0.37-9.42,0.71-14.14,1.03c-0.44,0.03-0.9-0.1-1.25-0.15c-0.63-1.11-0.15-1.99,0.12-2.86c1.96-6.32,3.92-12.63,5.89-18.95
		c2.5-8.01,5-16.01,7.51-24.01C769.72,765.08,770.18,763.88,770.7,762.42z"/>
	<path class="st0" d="M443.27,754.61c2.33,0.35,4.66,0.74,7,1.04c5.62,0.71,11.24,1.37,16.86,2.06c6.79,0.83,13.58,1.69,20.37,2.51
		c3.75,0.46,7.49,0.98,11.25,1.25c1.73,0.12,3.51-0.25,5.26-0.48c1.52-0.2,3.02-0.55,4.53-0.77c0.57-0.08,1.26-0.18,1.73,0.06
		c1.88,0.96,3.73,2.01,5.52,3.14c0.44,0.27,0.76,0.94,0.87,1.48c0.52,2.66,0.99,5.34,1.41,8.02c0.19,1.21-0.42,2.07-1.66,2.32
		c-1.15,0.23-2.33,0.33-3.51,0.39c-3.89,0.21-7.78,0.36-11.67,0.58c-1.21,0.07-2.32-0.1-3.46-0.54
		c-17.07-6.57-34.16-13.12-51.23-19.68c-1.1-0.42-2.17-0.93-3.25-1.4C443.3,754.59,443.27,754.61,443.27,754.61z"/>
	<path class="st0" d="M607.98,709.06c2.23-1.12,4.34-1.8,6.61-1.84c6.48-0.1,12.97-0.14,19.45-0.24c1.87-0.03,3.41,0.55,4.74,1.93
		c5.31,5.53,10.67,11,15.99,16.51c0.38,0.4,0.65,0.91,0.93,1.3c-0.6,0.97-1.36,0.69-2.01,0.59c-3.15-0.46-6.29-0.97-9.43-1.48
		c-8.26-1.33-16.52-2.67-24.78-4.01c-0.81-0.13-1.66-0.21-2.41-0.5c-0.74-0.29-1.47-0.75-2.05-1.3
		C613.9,718.95,608.92,711.09,607.98,709.06z"/>
	<path class="st0" d="M263.28,633.17c0.84,1.25,1.67,2.52,2.54,3.76c0.88,1.25,1.83,2.46,2.69,3.72c0.84,1.23,2.04,2.26,2.32,4.06
		c-0.53,0.13-0.97,0.37-1.36,0.31c-8.01-1.35-16-2.76-24.01-4.1c-1.69-0.28-2.82-1.06-3.31-2.72c-1.34-4.51-2.72-9.02-4.03-13.54
		c-0.47-1.63-0.08-2.4,1.56-3.02c2.75-1.04,5.55-1.97,8.33-2.94c1.16-0.4,2.3-0.39,3.4,0.27c3.33,2,6.68,3.98,10.02,5.96
		c1.4,0.84,2.12,2.19,2.61,3.66c0.17,0.52,0.13,1.16,0.02,1.72C263.88,631.21,263.58,632.1,263.28,633.17z"/>
	<path class="st0" d="M683.19,703.17c-1.52-1.14-3.06-2.21-4.5-3.4c-0.76-0.63-1.04-1.56-0.79-2.57c0.17-0.69,0.34-1.37,0.56-2.04
		c1.92-5.82,3.83-11.64,5.78-17.44c0.29-0.86,0.39-1.88,1.48-2.32c0.3,0.1,0.7,0.12,0.95,0.32c6.57,5.37,13.12,10.75,19.66,16.15
		c0.24,0.2,0.33,0.59,0.52,0.96c-0.68,1.33-1.97,2.02-3.02,2.92c-5.15,4.39-3.61,3.56-10.17,5.15c-2.63,0.64-5.28,1.21-7.92,1.8
		C685.05,702.83,684.35,702.95,683.19,703.17z"/>
	<path class="st0" d="M196.17,531.7c2.53,0.14,4.56,0.8,6.59,1.37c1.28,0.36,1.92,1.29,1.94,2.63c0.01,0.71,0.03,1.41,0.03,2.12
		c0.01,5.42,0.01,10.84,0.02,16.26c0,0.47,0.01,0.94-0.01,1.41c-0.12,3.06-2.58,4.79-5.57,3.89c-0.56-0.17-1.1-0.41-1.65-0.62
		c-4.5-1.76-8.99-3.52-13.49-5.28c-0.55-0.21-1.1-0.42-1.64-0.66c-2.09-0.97-2.3-1.88-0.9-3.83c0.34-0.48,0.72-0.93,1.1-1.38
		c3.78-4.52,7.56-9.04,11.35-13.54C194.61,533.26,195.37,532.54,196.17,531.7z"/>
	<path class="st0" d="M590.99,732.07c-1.6-0.79-2-1.85-2.11-3.08c-0.25-2.93-0.51-5.85-0.76-8.78c-0.25-3.05-0.52-6.09-0.72-9.14
		c-0.06-0.9,0.1-1.82,0.17-2.92c0.86-0.03,1.57-0.22,2.19-0.06c4.21,1.1,8.39,2.29,12.59,3.42c1.58,0.43,2.28,1.4,2.39,3.04
		c0.13,1.99-0.27,3.65-1.71,5.14c-3.44,3.55-6.76,7.21-10.15,10.79C592.34,731.05,591.66,731.51,590.99,732.07z"/>
	<path class="st0" d="M744.24,701.21c0.82,1.35,0.45,2.41,0.3,3.44c-0.63,4.31-1.32,8.6-2.02,12.9c-0.05,0.28-0.43,0.51-0.77,0.9
		c-0.62-0.3-1.28-0.52-1.84-0.9c-3.53-2.36-7.01-4.79-10.55-7.11c-1.68-1.1-2.8-2.46-3-4.52c-0.09-0.93-0.41-1.84-0.47-2.78
		c-0.08-1.17,0.66-2.08,1.8-2.25c1.04-0.16,2.11-0.28,3.17-0.26c4.01,0.05,8.01,0.16,12.01,0.27
		C743.31,700.92,743.75,701.1,744.24,701.21z"/>
	<path class="st0" d="M605.79,607.15c-2.39,1.96-4.98,3.09-7.47,4.39c-0.93,0.48-1.84,0.25-2.64-0.38c-0.74-0.58-1.45-1.2-2.16-1.82
		c-6.91-6.11-4.7-3.48-9.52-11.17c-1.55-2.48-3.11-4.95-4.6-7.47c0.37-0.21,0.62-0.45,0.72-0.4c4.74,2.35,9.56,4.54,14.15,7.14
		C597.84,599.46,604.35,605.29,605.79,607.15z"/>
	<path class="st0" d="M560.41,646.15c3.5-1.28,9.67-2.25,12.78-2.03c1.36,1.5,1.97,3.35,1.77,5.45c-0.23,2.35-0.52,4.69-0.79,7.04
		c-0.22,1.88-0.44,3.75-0.71,5.62c-0.15,1.04-0.21,2.13-1.3,3.05c-2.55-0.7-4.98-1.64-6.17-4.46c-1.79-4.25-3.61-8.48-5.36-12.74
		C560.39,647.49,560.47,646.76,560.41,646.15z"/>
	<path class="st0" d="M217.22,602.52c0.92-0.02,1.62-0.16,2.27-0.04c1.85,0.35,3.66,0.86,5.51,1.19c1.37,0.25,2.39,0.93,3.19,2.01
		c1.75,2.36,3.48,4.73,5.2,7.12c0.25,0.36,0.34,0.83,0.56,1.39c-0.33,0.25-0.57,0.53-0.88,0.65c-3.17,1.23-6.37,2.37-9.79,3.24
		c-0.42-0.41-1.01-0.73-1.2-1.21c-1.66-4.27-3.26-8.56-4.85-12.86C217.12,603.71,217.22,603.32,217.22,602.52z"/>
	<path class="st0" d="M566.66,670.54c1.37-0.66,2.28-1.1,3.28-1.58c0.62,0.51,1.25,0.86,1.64,1.38c1.13,1.53,1.68,3.03,2.03,5.02
		c-0.67,0.19-1.08-0.32-1.51-0.64C570.42,673.51,568.62,672.43,566.66,670.54z"/>
	<path class="st0" d="M443.3,754.59c-0.19-0.07-0.38-0.13-0.51-0.18c0.12,0.05,0.3,0.13,0.48,0.2L443.3,754.59z"/>
	<path class="st0" d="M726.94,611.36c0,0,0.02-0.02,0.02-0.02C726.96,611.34,726.94,611.36,726.94,611.36z"/>
	<path class="st0" d="M634.77,622.69c0,0-0.02,0.02-0.02,0.02S634.77,622.69,634.77,622.69z"/>
	<path class="st0" d="M295.05,658.86c0,0-0.02,0.02-0.02,0.02C295.03,658.88,295.05,658.86,295.05,658.86z"/>
	<path class="st0" d="M565.98,684.38l-0.03,0.03L565.98,684.38z"/>
</g>
</svg>
